<svg height="512" viewBox="0 0 60 60" width="512" xmlns="http://www.w3.org/2000/svg"><g id="Page-1" fill="none" fill-rule="evenodd"><g id="002---Burgered" fill="#7a44ff" fill-rule="nonzero"><path id="Shape" d="m24.08 7.28c.1994427.00044534.3944627-.05875715.56-.17l.83-.56c.3189465-.18855537.5074966-.53800629.4899783-.90810503-.0175184-.37009875-.2382336-.70017738-.5735644-.85776299-.3353308-.1575856-.7303086-.11684618-1.0264139.10586802l-.83.56c-.3640258.24459861-.5261957.69784751-.3999631 1.11785776.1262326.42001024.5114066.7087569.9499631.71214224z"/><path id="Shape" d="m30 6.55c.1950127.00143758.3861902-.05417767.55-.16l.84-.56c.4241552-.31902629.5251973-.91383822.2301824-1.35503162-.2950148-.4411934-.8833085-.57506395-1.3401824-.30496838l-.83.55c-.2220203.14673157-.3763952.3759089-.4289477.63679471-.0525525.2608858.0010525.53195838.1489477.75320529.1862704.27557882.4973739.44050114.83.44z"/><path id="Shape" d="m30 11c.1966006.0022477.3889572-.057208.55-.17l.84-.55c.4611578-.30651804.586518-.92884223.28-1.39s-.9288422-.58651804-1.39-.28l-.83.56c-.3640258.24459861-.5261957.69784751-.3999631 1.1178578.1262326.4200102.5114066.7087569.9499631.7121422z"/><path id="Shape" d="m15.28 11.39c.1638098.1058223.3549873.1614376.55.16.3326261.0005011.6437296-.1644212.83-.44.1488534-.2200282.2040417-.4902421.1533875-.7510177-.0506543-.2607756-.2029878-.49067948-.4233875-.6389823l-.84-.55c-.4550261-.24407932-1.0210631-.10158502-1.306288.32884528-.2852249.43043031-.1958368 1.00724242.206288 1.33115472z"/><path id="Shape" d="m19.17 8.55c.1950127.00143758.3861902-.05417767.55-.16l.83-.56c.3344065-.1793781.5384678-.53258209.5268341-.91188262-.0116337-.37930054-.2369575-.71933469-.5817287-.87788146-.3447711-.15854678-.749577-.10828462-1.0451054.12976408l-.84.55c-.2203997.14830282-.3727332.37820673-.4233875.63898229-.0506542.26077557.0045341.53098947.1533875.75101771.1862704.27557882.4973739.44050114.83.44z"/><path id="Shape" d="m41.17 8.55c.1950127.00143758.3861902-.05417767.55-.16l.83-.56c.4021248-.32391225.4915129-.90072441.206288-1.33115472-.2852249-.4304303-.8512619-.5729246-1.306288-.32884528l-.84.55c-.2203997.14830282-.3727332.37820673-.4233875.63898229-.0506542.26077557.0045341.53098947.1533875.75101771.1862704.27557882.4973739.44050114.83.44z"/><path id="Shape" d="m24.17 9.45c-.3012473.4588827-.176275 1.0748175.28 1.38l.83.56c.1638098.1058223.3549873.1614376.55.16.3326261.0005011.6437296-.1644212.83-.44.1488534-.2200282.2040417-.4902421.1533875-.7510177-.0506543-.2607756-.2029878-.49067948-.4233875-.6389823l-.84-.55c-.4588827-.30124727-1.0748175-.176275-1.38.28z"/><path id="Shape" d="m36.36 7.11c.1655373.11124285.3605573.17044534.56.17.4385565-.00338534.8237305-.292132.9499631-.71214224.1262326-.42001025-.0359373-.87325915-.3999631-1.11785776l-.83-.56c-.2961053-.2227142-.6910831-.26345362-1.0264139-.10586802-.3353308.15758561-.556046.48766424-.5735644.85776299-.0175183.37009874.1710318.71954966.4899783.90810503z"/><path id="Shape" d="m45.17 11.55c.1950127.0014376.3861902-.0541777.55-.16l.83-.56c.3344065-.1793781.5384678-.5325821.5268341-.91188262-.0116337-.37930054-.2369575-.71933469-.5817287-.87788146-.3447711-.15854678-.749577-.10828462-1.0451054.12976408l-.84.55c-.2203997.14830282-.3727332.3782067-.4233875.6389823-.0506542.2607756.0045341.5309895.1533875.7510177.1862704.2755788.4973739.4405011.83.44z"/><path id="Shape" d="m35.17 11.55c.1950127.0014376.3861902-.0541777.55-.16l.83-.56c.3344065-.1793781.5384678-.5325821.5268341-.91188262-.0116337-.37930054-.2369575-.71933469-.5817287-.87788146-.3447711-.15854678-.749577-.10828462-1.0451054.12976408l-.84.55c-.2203997.14830282-.3727332.3782067-.4233875.6389823-.0506542.2607756.0045341.5309895.1533875.7510177.1862704.2755788.4973739.4405011.83.44z"/><path id="Shape" d="m9.6 19.84c3.56-2.33 11.57-3.84 20.4-3.84s16.84 1.51 20.4 3.84c.3001031.1964961.6822392.2179628 1.0024613.056314.3202222-.1616489.529881-.4818551.55-.84.0201191-.358145-.1523582-.6998179-.4524613-.896314-3.93-2.56-12.17-4.16-21.5-4.16s-17.57 1.6-21.5 4.16c-.46391919.3037566-.59375661.9260808-.29 1.39s.92608081.5937566 1.39.29z"/><path id="Shape" d="m.57 40.61c-.37811888.6676441-.57464849 1.4227315-.57 2.19.0178676 1.1413534.41151801 2.2449804 1.12 3.14.0242713.0439922.05456348.0843817.09.12l.1.12c1.45245079 8.012904 8.43653411 13.8343775 16.58 13.82h24.22c8.1388557.0112052 15.1195581-5.8032399 16.58-13.81 1.3941633-1.5199611 1.689796-3.7491913.74-5.58-.5645186-.980989-1.4410527-1.7448761-2.49-2.17 1.0430426-2.8803534 1.0958266-6.0262763.15-8.94.9835362-.438135 1.8028016-1.1768743 2.34-2.11.9531764-1.8369576.6576093-4.0736819-.74-5.6-2.06-12.44-14.33-21.79-28.69-21.79s-26.63 9.35-28.69 21.79c-.82620922.9459683-1.29035968 2.1541768-1.31 3.41-.00453706.7704222.19192798 1.5287083.57 2.2.54156888.9223948 1.36047224 1.6503089 2.34 2.08-.95640758 2.9332127-.90006228 6.1026356.16 9-1.04579833.4142537-1.92491731 1.1632631-2.5 2.13zm41.54 17.39h-24.22c-6.2865282-.0107309-11.8890161-3.9684885-14-9.89l1.56 1.18 4.3 3.37c1.3522163 1.0100123 3.2077837 1.0100123 4.56 0 2.1953166-1.6804938 5.2446834-1.6804938 7.44 0 .6492314.5127937 1.4526806.7911818 2.28.79.8254924.0001752 1.6275947-.2742282 2.28-.78 2.0711327-1.5920215 4.9260882-1.688527 7.1-.24.6753655 1.1573889 2.0364001 1.7265272 3.3346202 1.3944243 1.2982201-.3321028 2.2187597-1.4848995 2.2553798-2.8244243v-2c0-.5522847.4477153-1 1-1s1 .4477153 1 1v4c-.0828427 1.6568542 1.1931458 3.0671572 2.85 3.1499999s3.0671573-1.1931457 3.15-2.8499999c.324674.0965386.6612906.1470311 1 .15.8254924.0001752 1.6275947-.2742282 2.28-.78l4.28-3.37 1.58-1.19c-2.1146862 5.9318687-7.732464 9.8919416-14.03 9.89zm-12.11-16c.5522847 0 1-.4477153 1-1v-2.29c9.15-3.06 12.81.07 14.22 2.41-9.9380182 2.9100424-20.5019818 2.9100424-30.44 0 1.41-2.34 5.09-5.44 14.22-2.39v2.27c0 .5522847.4477153 1 1 1zm15 1.27v9.73c0 .5522847-.4477153 1-1 1s-1-.4477153-1-1v-4c0-1.6568542-1.3431458-3-3-3s-3 1.3431458-3 3v2c0 .5522847-.4477153 1-1 1s-1-.4477153-1-1v-5.92c3.3813015-.2990063 6.7284135-.9048336 10-1.81zm12.69-1.68c.5044867 1.0347141.3516006 2.2695634-.39 3.15l-4 3-4.3 3.35c-.5961515.4336364-1.4038485.4336364-2 0v-8.42c2.0682635-.6502285 4.0952989-1.4249768 6.07-2.32.5239357-.2278342 1.0886791-.3469066 1.66-.35 1.2013304-.0431187 2.3326472.5645818 2.96 1.59zm-55.38-15.18c-.20831919-.3689025-.31527496-.786375-.31-1.21.03160681-.8565155.38934152-1.6685733 1-2.27.14348472-.1478841.23778355-.3364818.27-.54 1.73-11.62 13.24-20.39 26.73-20.39s25 8.77 26.76 20.39c.0294199.2023486.120163.3908152.26.54.9532264.8884146 1.22396 2.2905724.67 3.47-.6287459 1.0454204-1.7815606 1.6602549-3 1.6-.5718374.0018336-1.1375809-.1174497-1.66-.35-4.7081596-2.1261086-9.6892502-3.5867798-14.8-4.34h-.08c-.37-.06-.74-.1-1.11-.15h-.04c-4.6218766-.5799739-9.2981234-.5799739-13.92 0h-.12c-.37.05-.74.09-1.1.15h-.09c-5.1107498.7532202-10.0918404 2.2138914-14.8 4.34-1.64212372.8368312-3.65094827.3022942-4.66-1.24zm48.91 2.59-2.83 3.77-1.64-5.47c1.5.5266667 2.99 1.0933333 4.47 1.7zm-8.22-2.71-2.55 4.11-1.09-4.88c1.23.21 2.44.48 3.64.77zm-7.59-1.29-2.28 4.5-1.79-4.78c1.36.03 2.71.11 4.07.28zm-6.75-.24-1.79 4.74-2.28-4.5c1.41-.17 2.71-.25 4.07-.28zm-8 .8-1.11 4.84-2.55-4.11c1.2-.29 2.41-.56 3.64-.77zm-7.39 1.82-1.64 5.47-2.85-3.85c1.48-.6 2.97-1.1533333 4.47-1.66zm-8.42 2.62h.44c.5233917-.0052363 1.0440833-.0757816 1.55-.21l4.36 5.81c.1888544.2518058.4852427.4.8.4.0561956.0103334.1138044.0103334.17 0 .3725063-.0623574.6780995-.3292679.79-.69l2.36-7.88 3.83 6.12c.1878633.285348.5083999.4550438.85.45h.17c.4016128-.0677647.7220003-.3723307.81-.77l1.69-7.63 3.44 6.86c.1722037.3323996.5156433.5407787.89.54h.05c.4000643-.01889.7502672-.2746561.89-.65l2.06-5.5 2.06 5.5c.1464639.3920069.5215275.6513593.94.65.3765582-.0011413.7205498-.2137203.89-.55l3.44-6.86 1.67 7.63c.0879997.3976693.4083872.7022353.81.77h.19c.3455015.0006914.6668845-.1770145.85-.47l3.83-6.12 2.32 7.89c.1119005.3607321.4174937.6276426.79.69.0675803.0224925.1393888.0293314.21.02.3147573 0 .6111456-.1481942.8-.4l4.36-5.81c.5125782.1349452 1.0399752.2054888 1.57.21h.42c.8900185 2.6016949.8369222 5.4334978-.15 8h-.22c-.8545728.0018687-1.6993138.182398-2.48.53-1.6546977.7529024-3.3469203 1.4204459-5.07 2-1.61-2.96-5.94-7.53-17.23-3.59-11.29-3.91-15.62.62-17.18 3.57-1.7230797-.5795541-3.41530229-1.2470976-5.07-2-.84460843-.3775049-1.76582691-.5521597-2.69-.51-1.00817001-2.5590841-1.08252218-5.3915478-.21-8zm-2.54 11.6c1.00023427-1.5285512 2.98880654-2.0622806 4.62-1.24 8.1751509 3.6866563 17.1148864 5.3600705 26.07 4.88v4.76c-.950507-.3974965-1.9697382-.6047402-3-.61-1.8122729-.0028861-3.5730316.6028149-5 1.72-.6170313.4600119-1.4629687.4600119-2.08 0-2.907558-2.2975807-7.012442-2.2975807-9.92 0-.6191694.4535211-1.4608306.4535211-2.08 0l-4.28-3.41-3.92-2.94c-.45468641-.5686347-.70790903-1.2720309-.72-2 .00159709-.4069264.10838669-.8065262.31-1.16z"/></g></g></svg>